<svg width="26" height="28" viewBox="0 0 26 28" fill="none" xmlns="http://www.w3.org/2000/svg">
<path d="M9.70039 14C9.66281 14 9.63777 14 9.60019 14C9.53757 13.9865 9.4499 13.9865 9.37476 14C5.74277 13.8785 3 10.8004 3 7.00675C3 3.14561 5.91811 0 9.5 0C13.0819 0 16 3.14561 16 7.00675C15.9875 10.8004 13.2322 13.8785 9.73796 14C9.72543 14 9.71291 14 9.70039 14ZM9.5 2.02507C6.95761 2.02507 4.87861 4.26615 4.87861 7.00675C4.87861 9.70685 6.83237 11.8804 9.32466 11.9749C9.39981 11.9614 9.56262 11.9614 9.72543 11.9749C12.1802 11.8534 14.1089 9.67985 14.1214 7.00675C14.1214 4.26615 12.0424 2.02507 9.5 2.02507Z" fill="white"/>
<path d="M19.1379 14C19.1025 14 19.0671 14 19.0316 13.9871C18.5478 14.0388 18.0521 13.6635 18.0049 13.1329C17.9577 12.6024 18.2528 12.1235 18.7366 12.0588C18.8782 12.0459 19.0316 12.0459 19.1615 12.0459C20.8845 11.9424 22.2298 10.3894 22.2298 8.48706C22.2298 6.52 20.7782 4.92824 18.9844 4.92824C18.5006 4.94118 18.0993 4.50118 18.0993 3.97059C18.0993 3.44 18.5006 3 18.9844 3C21.7459 3 24 5.47176 24 8.5C24 11.4765 21.8758 13.8835 19.1733 14C19.1615 14 19.1497 14 19.1379 14Z" fill="white"/>
<path d="M9.5 28C7.04029 28 4.56803 27.3572 2.69815 26.0717C0.953765 24.889 0 23.2692 0 21.508C0 19.7468 0.953765 18.1142 2.69815 16.9187C6.46301 14.3604 12.5621 14.3604 16.3019 16.9187C18.0337 18.1014 19 19.7211 19 21.4823C19 23.2435 18.0462 24.8761 16.3019 26.0717C14.4194 27.3572 11.9597 28 9.5 28ZM3.73976 18.5384C2.53501 19.3612 1.88243 20.4153 1.88243 21.5209C1.88243 22.6136 2.54756 23.6677 3.73976 24.4776C6.8646 26.6245 12.1354 26.6245 15.2602 24.4776C16.465 23.6549 17.1176 22.6007 17.1176 21.4952C17.1176 20.4025 16.4524 19.3483 15.2602 18.5384C12.1354 16.4044 6.8646 16.4044 3.73976 18.5384Z" fill="white"/>
<path d="M20.9638 26C20.5107 26 20.1093 25.6803 20.0187 25.2008C19.9152 24.6547 20.2518 24.1353 20.7696 24.0154C21.5852 23.8423 22.3361 23.5093 22.9187 23.0431C23.6567 22.4704 24.058 21.7511 24.058 20.9919C24.058 20.2327 23.6567 19.5134 22.9317 18.954C22.362 18.5012 21.65 18.1815 20.8085 17.9817C20.2906 17.8618 19.954 17.3291 20.0705 16.783C20.187 16.2502 20.7049 15.9039 21.2357 16.0238C22.3491 16.2768 23.3201 16.7297 24.1098 17.3557C25.3138 18.2881 26 19.6067 26 20.9919C26 22.3771 25.3009 23.6957 24.0969 24.6414C23.2942 25.2808 22.2844 25.7469 21.171 25.9734C21.0933 26 21.0285 26 20.9638 26Z" fill="white"/>
</svg>
