<svg width="25" height="25" viewBox="0 0 28 25" fill="currentColor" xmlns="http://www.w3.org/2000/svg">
<path fill-rule="evenodd" clip-rule="evenodd" d="M24.4785 3.49537C22.2731 1.30371 18.6965 1.30371 16.4911 3.49537L14.6608 5.31292C14.4853 5.487 14.2473 5.58425 14 5.58425C13.7527 5.58425 13.5147 5.487 13.3402 5.31292L11.5089 3.49537C9.30346 1.30371 5.72695 1.30371 3.52148 3.49537C1.31509 5.68612 1.31509 9.23981 3.52148 11.4315C3.52988 11.4398 3.53923 11.4491 3.54763 11.4574L14 22.7084L24.4524 11.4574C24.4608 11.4491 24.4701 11.4398 24.4785 11.4315C26.6849 9.23981 26.6849 5.68612 24.4785 3.49537ZM15.1704 2.18611C18.1048 -0.728704 22.8639 -0.728704 25.7992 2.18611C28.7289 5.0963 28.7336 9.81112 25.8132 12.7259L14.686 24.7018C14.5096 24.8916 14.2604 25 14 25C13.7396 25 13.4904 24.8916 13.314 24.7018L2.18683 12.7259C-0.733572 9.81112 -0.728949 5.0963 2.20078 2.18611C5.13611 -0.728704 9.89518 -0.728704 12.8296 2.18611L14 3.34816L15.1704 2.18611Z" fill="currentColor"/>
</svg>
